# xmcd
#
# Track frame offsets: 
#        150
#        35150
#        62195
#
# Disc length: 1196 seconds
#
# Revision: 1
# Processed by: cddbd v1.5.2PL0 Copyright (c) Steve Scherf et al.
# Submitted via: ExactAudioCopy v0.99pb5
#
DISCID=2704aa03
DTITLE=Bassfly - Tillman and Ries
DYEAR=2000
DGENRE=Trance
TTITLE0=Bassfly (Moogwai Remix)
TTITLE1=Bassfly (Original Mix)
TTITLE2=Bassfly (Michael Woods Remix)
EXTD=
EXTT0=
EXTT1=
EXTT2=
PLAYORDER=
